HIERARCHY
ROOT Hips
{
	OFFSET 0.00000 0.00000 0.00000
	CHANNELS 6 Xposition Yposition Zposition Yrotation Zrotation Xrotation 
	JOINT Lumbar
	{
		OFFSET 0 0 0
		CHANNELS 3 Zrotation Xrotation Yrotation
		JOINT Neck
		{
			OFFSET 0.00 0.2701 0.00
			CHANNELS 3 Zrotation Xrotation Yrotation
			End Site
			{
				OFFSET 0.00 0.1379 0.00
			}
		}
		JOINT RightShoulder
		{
			OFFSET 0.0119 0.2289 0.1181
			CHANNELS 3 Zrotation Xrotation Yrotation
			JOINT RightElbow
			{
				OFFSET 0.00 -0.1475 0.00
				CHANNELS 2 Zrotation Yrotation
				JOINT RightWrist
				{
					OFFSET 0.00 -0.1605 0.00
					CHANNELS 2 Zrotation Xrotation
					End Site
					{
						OFFSET 0.0040 -0.1068 0.0006
					}
				}
			}
		}
		JOINT LeftShoulder
		{
			OFFSET 0.0119 0.2289 -0.1181
			CHANNELS 3 Zrotation Xrotation Yrotation
			JOINT LeftElbow
			{
				OFFSET 0.00 -0.1475 0.00
				CHANNELS 2 Zrotation Yrotation
				JOINT LeftWrist
				{
					OFFSET 0.00 -0.1605 0.00
					CHANNELS 2 Zrotation Xrotation
					End Site
					{
						OFFSET 0.0040 -0.1068 -0.0006
					}
				}
			}
		}
	}
	JOINT RightHip
	{
		OFFSET 0.0316 -0.0424 0.0458
		CHANNELS 3 Zrotation Xrotation Yrotation
		JOINT RightKnee
		{
			OFFSET 0.00 -0.2438 0.00
			CHANNELS 1 Zrotation
			JOINT RightAnkle
			{
				OFFSET 0.00 -0.2449 0.00
				CHANNELS 3 Zrotation Xrotation Yrotation
				End Site
				{
					OFFSET 0.1237 -0.0542 0.0051
				}
			}
		}
	}
	JOINT LeftHip
	{
		OFFSET 0.0316 -0.0424 -0.0458
		CHANNELS 3 Zrotation Xrotation Yrotation
		JOINT LeftKnee
		{
			OFFSET 0.00 -0.2438 0.00
			CHANNELS 1 Zrotation
			JOINT LeftAnkle
			{
				OFFSET 0.00 -0.2449 0.00
				CHANNELS 3 Zrotation Xrotation Yrotation
				End Site
				{
					OFFSET 0.1237 -0.0542 -0.0051
				}
			}
		}
	}
}
MOTION
Frames: 28
Frame Time: 0.02
-0.14305 0.00383 0.07337 -186.6944 -44.57703 -8.39729 36.7494 -0.83059 10.05978 7.3525 -2.70934 -0.82879 104.86495 -5.05385 64.16647 19.19048 84.15323 31.09572 -3.35161 61.76356 34.42596 -48.00549 55.35003 -64.01737 15.34504 8.53286 39.49845 -7.74268 -10.67451 -21.86896 -7.99199 -1.82771 -1.62046 56.76827 6.04178 0.80448 -27.90422 -6.67499 2.10816 1.6969
-0.14334 0.00408 0.07339 -186.79071 -44.50427 -8.42101 36.95634 -0.54345 10.11394 7.19273 -1.44835 -0.82879 104.18004 -4.20557 64.17565 19.61005 83.5852 31.88925 -3.36253 60.94999 35.65495 -48.07982 56.77402 -63.46896 15.01253 8.50101 39.50384 -7.69288 -10.14227 -21.95292 -8.02018 -1.85295 -1.63284 56.60854 5.9536 0.35267 -27.84786 -6.67376 2.16762 1.7326
-0.1436 0.00445 0.07339 -186.9603 -44.49922 -8.52773 37.1654 -0.23698 10.14225 6.93402 -0.14403 -0.8288 103.47249 -3.37648 64.17107 20.36975 82.8243 32.83917 -3.45895 59.99634 37.14856 -48.09798 58.71284 -62.71165 14.6941 8.36863 39.57312 -7.54476 -9.35438 -21.95765 -8.05781 -1.90246 -1.65734 56.53469 5.83943 -0.4283 -27.78162 -6.67721 2.26445 1.78984
-0.14387 0.00476 0.07341 -187.09974 -44.468 -8.59757 37.37082 0.0597 10.18462 6.71716 1.13418 -0.82881 102.75924 -2.57237 64.15036 21.05611 82.1893 33.69927 -3.51381 59.08184 38.53146 -48.11135 60.45594 -62.16605 14.35036 8.26954 39.61692 -7.44313 -8.69144 -21.99456 -8.09124 -1.93952 -1.67578 56.42797 5.7434 -1.03218 -27.72056 -6.67907 2.34132 1.83546
-0.14416 0.00509 0.0734 -187.22883 -44.41773 -8.66541 37.5882 0.36107 10.21682 6.51142 2.44313 -0.82882 102.11264 -1.6211 64.22408 21.40635 81.3813 34.64707 -3.57764 58.26093 39.88169 -48.24263 62.05684 -61.15471 14.08133 8.21973 39.64668 -7.33258 -7.98645 -22.04704 -8.12464 -1.98264 -1.69666 56.29558 5.62249 -1.74969 -27.65652 -6.67899 2.43056 1.88868
-0.1444 0.00542 0.07344 -187.39537 -44.42354 -8.7566 37.7806 0.65696 10.26445 6.25907 3.69598 -0.82882 101.32146 -0.98474 64.09759 22.5387 80.89023 35.4447 -3.64337 57.21611 41.36072 -48.12065 64.07045 -61.03865 13.66285 8.04815 39.72095 -7.21786 -7.31069 -22.04846 -8.16023 -2.01892 -1.7153 56.23767 5.54607 -2.31099 -27.59648 -6.68397 2.50306 1.9313
-0.14451 0.00573 0.07359 -187.65183 -44.56206 -8.89122 37.90751 0.93427 10.35794 5.91125 4.79492 -0.82883 100.14684 -1.18933 63.42697 25.69891 81.34548 35.80654 -3.70201 55.58003 43.11862 -47.28847 67.07703 -63.63116 12.81809 7.51955 39.89695 -7.11431 -6.77186 -21.92852 -8.19937 -2.02992 -1.72468 56.35542 5.60482 -2.34258 -27.54837 -6.70127 2.51907 1.93853
-0.14457 0.00605 0.07379 -187.94211 -44.75565 -9.04639 38.00839 1.205 10.46841 5.51865 5.83314 -0.82884 98.82709 -1.71505 62.55567 29.64065 82.12295 36.00794 -3.75874 53.72559 44.99687 -46.20754 70.48143 -67.09783 11.8252 6.87949 40.11636 -7.01025 -6.27244 -21.75998 -8.24035 -2.03336 -1.73143 56.54674 5.70812 -2.20827 -27.50492 -6.72354 2.51704 1.93444
-0.14465 0.00636 0.07397 -188.21385 -44.92751 -9.19242 38.11856 1.47797 10.57315 5.14103 6.89149 -0.82885 97.5657 -2.1098 61.77121 33.25652 82.7403 36.27022 -3.81085 51.97793 46.8282 -45.25974 73.71503 -70.03877 10.90707 6.32093 40.31934 -6.90771 -5.76061 -21.61365 -8.28059 -2.04041 -1.73932 56.70998 5.78671 -2.1627 -27.46033 -6.74382 2.52414 1.93617
-0.14475 0.00669 0.07413 -188.50226 -45.08765 -9.34053 38.23965 1.75519 10.66867 4.7826 7.98389 -0.82885 96.33033 -2.4419 60.9995 36.76612 83.41211 36.58776 -3.88798 50.19564 48.64091 -44.2314 76.92733 -73.50669 9.95689 5.63147 40.51072 -6.79689 -5.21926 -21.46405 -8.32085 -2.04717 -1.7476 56.85331 5.88256 -2.07542 -27.41123 -6.76314 2.52907 1.93605
-0.14479 0.00699 0.07435 -188.76216 -45.28459 -9.48812 38.33163 2.02124 10.78765 4.37482 8.98918 -0.82886 95.01315 -2.9806 60.16025 40.67143 84.045 36.75146 -3.91277 48.43261 50.51148 -43.30454 80.26853 -76.09762 9.03944 5.18594 40.73564 -6.70371 -4.74873 -21.31069 -8.36127 -2.05295 -1.75461 57.05486 5.95428 -2.02735 -27.37282 -6.78557 2.53317 1.93649
-0.14463 0.00726 0.07477 -188.94186 -45.56762 -9.62872 38.35097 2.26202 10.96842 3.84279 9.77812 -0.82887 93.4499 -4.01029 59.12743 45.53272 84.53252 36.51572 -3.78156 46.80297 52.56146 -42.78817 83.8906 -75.96256 8.23733 5.47259 41.0429 -6.66695 -4.4964 -21.15975 -8.40261 -2.0531 -1.75592 57.3953 5.9406 -2.1614 -27.36237 -6.81526 2.54431 1.94397
-0.14441 0.00751 0.07526 -189.09013 -45.88572 -9.76773 38.34157 2.49083 11.17221 3.2631 10.47923 -0.82887 91.82006 -5.23646 58.04372 50.75191 84.96343 36.13211 -3.59948 45.19687 54.65449 -42.37035 87.62073 -74.93154 7.47529 6.00345 41.38197 -6.64731 -4.31055 -21.00696 -8.44382 -2.05314 -1.75641 57.79194 5.90258 -2.33322 -27.36267 -6.84787 2.55419 1.95181
-0.14421 0.00776 0.07572 -189.2478 -46.18892 -9.90746 38.34452 2.72254 11.36471 2.70487 11.21454 -0.82888 90.25704 -6.37378 57.02073 55.77158 85.39402 35.82501 -3.44817 43.56206 56.69491 -41.86157 91.28551 -74.37243 6.70224 6.40213 41.70604 -6.61505 -4.07278 -20.85474 -8.48444 -2.05641 -1.7592 58.16511 5.88116 -2.46371 -27.35836 -6.87921 2.56113 1.95753
-0.14403 0.00803 0.07618 -189.4269 -46.49016 -10.04817 38.34991 2.96521 11.56089 2.14527 11.97306 -0.82889 88.53369 -7.52233 55.83365 60.98029 85.94442 35.47471 -3.2648 41.99199 58.8813 -41.53698 95.03763 -73.5749 5.89372 6.88539 42.03426 -6.60207 -3.92258 -20.70174 -8.52791 -2.0466 -1.75415 58.5327 5.83843 -2.6888 -27.353 -6.91056 2.58199 1.97098
-0.1438 0.00825 0.07665 -189.55395 -46.80252 -10.18595 38.34332 3.18174 11.75515 1.57856 12.6617 -0.8289 87.1315 -8.68762 54.97683 65.86262 86.22925 35.17934 -3.13581 40.30004 60.76963 -40.85793 98.62254 -73.04415 5.17043 7.25314 42.36045 -6.55435 -3.61192 -20.5508 -8.56532 -2.06336 -1.76479 58.92363 5.83308 -2.73026 -27.35238 -6.94244 2.57418 1.96877
-0.1435 0.00836 0.07718 -189.5404 -47.14138 -10.31774 38.31421 3.33353 11.93407 0.99799 13.19121 -0.8289 86.624 -9.86908 55.06346 69.81289 85.77971 35.08965 -3.17225 38.229 61.84566 -39.15634 101.76387 -73.51428 4.67467 7.23232 42.67606 -6.39516 -2.78492 -20.40447 -8.58657 -2.15984 -1.82305 59.37043 5.94234 -2.23616 -27.36161 -6.97565 2.4842 1.92137
-0.14315 0.00842 0.07772 -189.47623 -47.48905 -10.4462 38.27351 3.45858 12.11086 0.41348 13.65123 -0.82891 86.4444 -11.05524 55.48172 73.4062 85.06625 35.058 -3.26461 36.04289 62.61554 -37.10023 104.72177 -74.27124 4.26398 7.08903 42.98775 -6.20248 -1.80434 -20.26088 -8.6016 -2.28191 -1.89639 59.83738 6.0888 -1.5606 -27.37534 -7.00915 2.36614 1.85862
-0.14283 0.0085 0.07825 -189.43799 -47.82963 -10.57494 38.23594 3.59298 12.29165 -0.1654 14.13549 -0.82892 86.12087 -12.22632 55.73664 77.12372 84.48149 34.98867 -3.32957 33.9342 63.51115 -35.21971 107.73368 -74.86267 3.8134 7.00913 43.29921 -6.03265 -0.93167 -20.11719 -8.61911 -2.38813 -1.96012 60.29145 6.21452 -0.9812 -27.38739 -7.04215 2.26313 1.80414
-0.1425 0.00859 0.0788 -189.38621 -48.18478 -10.70883 38.20637 3.73896 12.46111 -0.76307 14.64841 -0.82893 85.77318 -13.46071 56.04282 81.02115 83.85708 34.96102 -3.40128 31.71844 64.46535 -33.27855 110.87786 -75.57099 3.36807 6.90594 43.62043 -5.83143 0.09838 -19.96828 -8.63812 -2.51211 -2.03537 60.76356 6.3558 -0.3441 -27.39825 -7.07686 2.15027 1.74411
-0.14217 0.00865 0.07932 -189.35118 -48.51084 -10.83123 38.15779 3.85442 12.65251 -1.32077 15.0853 -0.82893 85.55488 -14.55973 56.32187 84.44625 83.25441 34.86327 -3.4727 29.70017 65.22368 -31.38178 113.69613 -76.11671 2.93307 6.81791 43.91981 -5.6871 0.83949 -19.83131 -8.65249 -2.60526 -2.09033 61.20175 6.47359 0.21502 -27.41254 -7.10796 2.05147 1.69209
-0.14184 0.00864 0.0798 -189.37343 -48.75723 -10.92239 38.05954 3.89371 12.91215 -1.77651 15.33805 -0.82894 85.61156 -15.29918 56.44379 86.7179 82.76671 34.5505 -3.53141 28.23977 65.51963 -29.66578 115.70198 -76.13725 2.49286 6.80986 44.1606 -5.71068 0.73245 -19.72341 -8.65575 -2.60628 -2.08481 61.54386 6.51931 0.526 -27.43484 -7.1297 1.99666 1.66515
-0.14152 0.00861 0.08025 -189.41461 -48.97318 -11.00209 37.94271 3.90293 13.1924 -2.18975 15.51541 -0.82895 85.78779 -15.89806 56.52748 88.51144 82.31226 34.16743 -3.58781 26.98618 65.62768 -28.01278 117.37644 -75.99068 2.06266 6.81841 44.37903 -5.79205 0.33218 -19.62804 -8.65453 -2.57555 -2.05853 61.85018 6.53988 0.7503 -27.46045 -7.14765 1.95729 1.64694
-0.14119 0.00859 0.08071 -189.44825 -49.20125 -11.0873 37.83452 3.92498 13.45852 -2.61625 15.72207 -0.82896 85.91107 -16.55048 56.6296 90.48198 81.84887 33.82194 -3.64437 25.6464 65.81979 -26.34765 119.17557 -75.92784 1.63579 6.81298 44.60728 -5.84519 0.07464 -19.52906 -8.65525 -2.5598 -2.04227 62.17118 6.57082 1.00681 -27.48475 -7.16687 1.91196 1.62525
-0.14087 0.00857 0.08118 -189.47594 -49.43753 -11.17133 37.72505 3.94973 13.74507 -3.06906 15.94753 -0.82896 86.04024 -17.24794 56.73861 92.61577 81.34928 33.4541 -3.70665 24.26442 66.00877 -24.59551 121.08272 -75.83788 1.1774 6.83121 44.83768 -5.90561 -0.2182 -19.42141 -8.65616 -2.54252 -2.02402 62.50043 6.60747 1.29977 -27.50842 -7.18803 1.86118 1.60095
-0.14054 0.00854 0.08163 -189.52077 -49.64855 -11.25486 37.61402 3.96191 13.99349 -3.45619 16.1164 -0.82897 86.18085 -17.8168 56.82009 94.29386 80.93757 33.116 -3.75566 23.02755 66.16127 -23.05046 122.68247 -75.76576 0.78751 6.80494 45.0573 -5.96484 -0.50836 -19.33473 -8.65568 -2.52067 -2.00486 62.8027 6.62583 1.49409 -27.53406 -7.20423 1.82578 1.58437
-0.14016 0.00849 0.08203 -189.61234 -49.80398 -11.34227 37.50333 3.94828 14.1358 -3.67796 16.15167 -0.82897 86.32757 -18.07579 56.83357 94.88687 80.75067 32.87187 -3.7693 22.08631 66.28034 -22.01132 123.56567 -75.74212 0.5704 6.65875 45.26144 -6.00847 -0.72714 -19.30307 -8.65258 -2.49277 -1.98756 63.04753 6.59945 1.43495 -27.56484 -7.20792 1.82939 1.58715
-0.13978 0.00843 0.0824 -189.7201 -49.93364 -11.42913 37.39184 3.9229 14.23823 -3.83373 16.13206 -0.82898 86.48036 -18.20819 56.82058 95.02795 80.65326 32.66075 -3.76937 21.29554 66.36673 -21.19062 124.14155 -75.74743 0.42401 6.46705 45.45383 -6.04876 -0.93258 -19.2921 -8.64826 -2.46143 -1.97012 63.26467 6.5555 1.27934 -27.59735 -7.2067 1.84802 1.59744
